<svg xmlns="http://www.w3.org/2000/svg" width="113" height="72" fill="none" viewBox="0 0 113 72">
    <path fill="#000" d="M102.395 0H10.072c-.385 0-.77 0-1.154.002-.324.003-.648.006-.971.015-.706.02-1.418.06-2.116.186-.708.127-1.367.335-2.01.663-.632.321-1.21.742-1.712 1.243-.502.502-.922 1.08-1.244 1.713-.327.643-.535 1.302-.662 2.01-.126.698-.168 1.41-.187 2.115-.009.324-.012.648-.014.971-.003.385-.002.77-.002 1.155v51.855c0 .386 0 .77.002 1.155.002.323.005.647.014.97.02.705.061 1.417.187 2.114.127.71.335 1.368.662 2.011.322.633.742 1.212 1.244 1.713.501.502 1.08.923 1.712 1.243.643.329 1.302.537 2.01.664.698.124 1.41.167 2.116.186.323.007.647.012.971.013.384.003.77.003 1.154.003h92.323c.384 0 .769 0 1.152-.003.324-.001.648-.006.973-.013.705-.02 1.416-.062 2.115-.186.708-.127 1.367-.335 2.01-.664.633-.32 1.21-.74 1.712-1.243.501-.501.922-1.08 1.244-1.713.328-.643.536-1.302.662-2.01.126-.698.167-1.41.186-2.114.009-.324.013-.648.014-.971.003-.386.003-.77.003-1.155V10.073c0-.386 0-.77-.003-1.155-.001-.323-.005-.647-.014-.97-.019-.706-.06-1.418-.186-2.115-.126-.71-.334-1.368-.662-2.011-.322-.633-.743-1.21-1.244-1.713-.502-.501-1.079-.922-1.712-1.243-.643-.328-1.302-.536-2.01-.663-.699-.125-1.41-.167-2.115-.186-.325-.009-.649-.012-.973-.015C103.164 0 102.779 0 102.395 0z"/>
    <path fill="#fff" d="M102.397 2.4l1.136.002c.307.002.615.006.925.014.538.015 1.167.044 1.754.149.51.092.938.231 1.348.44.406.206.777.476 1.101.8.326.326.596.698.805 1.108.207.407.346.833.438 1.347.104.58.134 1.211.148 1.753.009.305.013.611.014.924.003.378.003.756.003 1.136v51.855c0 .38 0 .757-.003 1.143-.001.306-.005.611-.014.918-.014.54-.044 1.171-.15 1.759-.09.506-.228.932-.437 1.341-.209.41-.478.78-.802 1.105-.326.326-.697.595-1.107.803-.407.208-.834.347-1.339.438-.599.107-1.255.136-1.749.15-.311.007-.62.01-.937.012-.377.003-.756.003-1.134.003H10.059c-.373 0-.747 0-1.127-.003-.31-.001-.62-.005-.918-.012-.506-.014-1.162-.043-1.756-.15-.509-.09-.936-.23-1.349-.441-.406-.206-.776-.475-1.102-.802-.324-.323-.593-.693-.8-1.102-.21-.41-.348-.837-.44-1.35-.106-.585-.135-1.214-.15-1.75-.008-.308-.011-.616-.013-.921l-.002-.903V9.834l.002-.9c.002-.307.005-.615.014-.922.014-.538.043-1.166.15-1.757.09-.508.23-.935.44-1.346.206-.407.475-.778.8-1.103.325-.324.696-.594 1.104-.802.409-.208.837-.347 1.346-.439.587-.105 1.217-.134 1.756-.15.308-.007.616-.01.92-.013l1.14-.002h92.323z"/>
    <path fill="#000" d="M29.567 24.304c.953-1.192 1.6-2.793 1.43-4.43-1.396.07-3.1.921-4.085 2.115-.886 1.022-1.67 2.69-1.465 4.258 1.567.136 3.132-.783 4.12-1.943zM30.979 26.553c-2.276-.136-4.21 1.291-5.297 1.291-1.087 0-2.75-1.223-4.55-1.19-2.342.034-4.516 1.359-5.704 3.465-2.445 4.214-.646 10.464 1.732 13.896 1.154 1.698 2.546 3.567 4.38 3.5 1.731-.068 2.41-1.122 4.516-1.122 2.104 0 2.716 1.122 4.55 1.088 1.9-.034 3.09-1.699 4.244-3.398 1.325-1.935 1.867-3.804 1.9-3.907-.033-.034-3.666-1.428-3.7-5.606-.034-3.499 2.852-5.163 2.988-5.267-1.63-2.41-4.176-2.682-5.06-2.75z"/>
    <path fill="#000" fill-rule="evenodd" d="M62.05 30.19c0-4.963-3.444-8.372-8.39-8.372h-9.554v25.486h3.956v-8.707h5.475c4.998 0 8.513-3.427 8.513-8.408zm-9.45 5.086h-4.538v-10.12h4.556c3.427 0 5.387 1.837 5.387 5.051 0 3.215-1.96 5.069-5.404 5.069zM70.121 36.6c-4.592.283-7.082 2.155-7.082 5.423 0 3.285 2.56 5.475 6.234 5.475 2.49 0 4.787-1.254 5.829-3.25h.088v3.056h3.656V34.623c0-3.674-2.95-6.04-7.47-6.04-4.204 0-7.313 2.401-7.419 5.704h3.568c.3-1.572 1.748-2.596 3.744-2.596 2.42 0 3.78 1.13 3.78 3.197V36.3l-4.928.3zm4.926 2.35v1.43c0 2.385-2.031 4.098-4.715 4.098-2.102 0-3.444-1.007-3.444-2.561 0-1.607 1.289-2.526 3.761-2.684l4.398-.283z" clip-rule="evenodd"/>
    <path fill="#000" d="M82.2 54.121v-3.055c.248.035.848.07 1.166.07 1.748 0 2.737-.741 3.338-2.649l.353-1.13-6.694-18.545h4.133l4.663 15.048h.088l4.663-15.048h4.027l-6.941 19.481c-1.59 4.468-3.41 5.934-7.26 5.934-.3 0-1.271-.035-1.536-.106z"/>
</svg>
