<svg xmlns="http://www.w3.org/2000/svg" width="113" height="72" fill="none" viewBox="0 0 113 72">
    <path fill="#3C4043" d="M102.458 0h-92.38c-.385 0-.77 0-1.154.002-.325.003-.648.006-.973.015-.706.019-1.419.06-2.116.186-.709.127-1.368.335-2.011.663-.633.321-1.212.742-1.714 1.243-.502.502-.923 1.08-1.244 1.713-.328.643-.536 1.302-.663 2.01-.126.698-.168 1.41-.187 2.115-.008.324-.012.648-.015.971-.002.385 0 .77 0 1.155v51.855c0 .386-.002.77 0 1.155.003.323.007.647.015.97.02.705.06 1.417.187 2.114.127.71.335 1.368.663 2.012.321.632.742 1.21 1.244 1.712s1.08.923 1.714 1.243c.643.329 1.302.537 2.01.664.698.124 1.411.167 2.117.186.325.007.648.012.973.013.384.003.77.003 1.154.003h92.38c.384 0 .769 0 1.153-.003.324-.001.648-.006.973-.013.705-.02 1.418-.061 2.117-.186.708-.127 1.367-.335 2.011-.664.633-.32 1.21-.74 1.713-1.243.501-.502.922-1.08 1.244-1.712.329-.644.537-1.303.663-2.012.126-.697.167-1.409.186-2.113.009-.324.013-.648.015-.971.003-.386.003-.77.003-1.155V10.073c0-.386 0-.77-.003-1.155-.002-.323-.006-.647-.015-.97-.019-.706-.06-1.418-.186-2.115-.126-.71-.334-1.368-.663-2.011-.322-.633-.743-1.21-1.244-1.713-.503-.501-1.08-.922-1.713-1.243-.644-.328-1.303-.536-2.011-.663-.699-.126-1.412-.167-2.117-.186-.325-.009-.649-.012-.973-.015C103.227 0 102.842 0 102.458 0z"/>
    <path fill="#FFFFFE" d="M102.458 2.4l1.137.002c.308.002.616.005.925.014.538.014 1.169.044 1.756.149.51.092.938.232 1.349.44.406.206.777.477 1.101.8.326.326.597.698.805 1.108.208.407.347.833.439 1.346.105.581.134 1.212.148 1.754.009.305.013.61.014.924.003.379.003.756.003 1.136v51.855c0 .38 0 .757-.003 1.143-.001.306-.005.612-.014.918-.014.54-.043 1.172-.15 1.759-.09.506-.229.932-.438 1.341-.208.41-.478.78-.802 1.105-.327.326-.697.595-1.107.803-.408.208-.835.348-1.34.438-.6.107-1.256.137-1.75.15-.311.007-.62.011-.938.012-.377.003-.757.003-1.135.003H10.064c-.373 0-.748 0-1.128-.003-.31 0-.62-.005-.918-.012-.506-.013-1.163-.043-1.757-.15-.51-.09-.937-.23-1.35-.441-.407-.206-.777-.475-1.103-.802-.324-.322-.593-.693-.801-1.102-.209-.41-.348-.836-.44-1.35-.106-.586-.135-1.213-.15-1.75-.008-.308-.011-.616-.013-.92l-.002-.903V9.835l.002-.9c.002-.308.005-.616.013-.923.015-.538.044-1.166.151-1.757.09-.508.23-.935.44-1.346.206-.407.476-.778.801-1.103.324-.324.696-.593 1.105-.801.408-.209.837-.348 1.347-.44.587-.105 1.217-.135 1.757-.149.308-.009.615-.012.92-.014l1.14-.002h92.38z"/>
    <path fill="#3C4043" fill-rule="evenodd" d="M54.179 47.925V37.663h5.297c2.17 0 4.003-.727 5.496-2.162l.359-.363c2.728-2.97 2.549-7.596-.359-10.343-1.453-1.454-3.445-2.242-5.496-2.202h-8.503v25.332h3.206zm-.001-13.373v-8.848h5.377c1.155 0 2.25.445 3.066 1.253 1.733 1.696 1.773 4.524.1 6.282-.816.869-1.972 1.353-3.166 1.313h-5.377zM80.284 31.946c-1.374-1.273-3.246-1.92-5.616-1.92-3.047 0-5.337 1.132-6.85 3.374l2.828 1.798c1.035-1.535 2.45-2.303 4.241-2.303 1.135 0 2.23.424 3.087 1.192.837.727 1.314 1.778 1.314 2.889v.747c-1.234-.687-2.788-1.05-4.7-1.05-2.23 0-4.022.525-5.356 1.596-1.335 1.07-2.012 2.484-2.012 4.282-.04 1.636.657 3.192 1.892 4.242 1.255 1.132 2.848 1.697 4.72 1.697 2.21 0 3.963-.99 5.297-2.97h.14v2.404h3.066V37.239c0-2.242-.677-4.02-2.05-5.292zM71.58 44.733c-.657-.485-1.056-1.273-1.056-2.121 0-.95.439-1.738 1.295-2.364.876-.626 1.971-.95 3.266-.95 1.792-.02 3.186.385 4.182 1.193 0 1.373-.538 2.565-1.593 3.575-.956.97-2.25 1.515-3.605 1.515-.896.02-1.772-.283-2.49-.848z" clip-rule="evenodd"/>
    <path fill="#3C4043" d="M99.938 30.593L89.224 55.54h-3.306l3.983-8.726-7.03-16.221h3.485l5.078 12.443h.06l4.959-12.443h3.485z"/>
    <path fill="#4285F4" d="M41.218 35.44c0-.99-.08-1.979-.24-2.948H27.458v5.595h7.747c-.319 1.798-1.355 3.414-2.868 4.424v3.636h4.62c2.708-2.525 4.262-6.262 4.262-10.706z"/>
    <path fill="#34A853" d="M27.453 49.662c3.864 0 7.13-1.293 9.5-3.515l-4.62-3.636c-1.295.889-2.948 1.394-4.88 1.394-3.744 0-6.91-2.566-8.045-6h-4.76v3.758c2.43 4.908 7.389 7.999 12.805 7.999z"/>
    <path fill="#FBBC04" d="M19.407 37.905c-.597-1.798-.597-3.757 0-5.575v-3.737h-4.76c-2.05 4.1-2.05 8.949 0 13.05l4.76-3.738z"/>
    <path fill="#EA4335" d="M27.453 26.33c2.052-.04 4.023.748 5.497 2.182l4.102-4.161c-2.609-2.465-6.034-3.818-9.599-3.778-5.416 0-10.375 3.111-12.805 8.02l4.76 3.757c1.135-3.454 4.301-6.02 8.045-6.02z"/>
</svg>
