<svg xmlns="http://www.w3.org/2000/svg" width="113" height="72" fill="none" viewBox="0 0 113 72">
    <path fill="#3C4043" d="M102.458 0h-92.38c-.385 0-.77 0-1.154.002-.325.003-.648.006-.973.015-.706.019-1.419.06-2.116.186-.709.127-1.368.335-2.011.663-.633.321-1.212.742-1.714 1.243-.502.502-.923 1.08-1.244 1.713-.328.643-.536 1.302-.663 2.01-.126.698-.168 1.41-.187 2.115-.008.324-.012.648-.015.971-.002.385 0 .77 0 1.155v51.855c0 .386-.002.77 0 1.155.003.323.007.647.015.97.02.705.06 1.417.187 2.114.127.71.335 1.368.663 2.012.321.632.742 1.21 1.244 1.712s1.08.923 1.714 1.243c.643.329 1.302.537 2.01.664.698.124 1.411.167 2.117.186.325.007.648.012.973.013.384.003.77.003 1.154.003h92.38c.384 0 .769 0 1.153-.003.324-.001.648-.006.973-.013.705-.02 1.418-.061 2.117-.186.708-.127 1.367-.335 2.011-.664.633-.32 1.21-.74 1.713-1.243.501-.502.922-1.08 1.244-1.712.329-.644.537-1.303.663-2.012.126-.697.167-1.409.186-2.113.009-.324.013-.648.015-.971.003-.386.003-.77.003-1.155V10.073c0-.386 0-.77-.003-1.155-.002-.323-.006-.647-.015-.97-.019-.706-.06-1.418-.186-2.115-.126-.71-.334-1.368-.663-2.011-.322-.633-.743-1.21-1.244-1.713-.503-.501-1.08-.922-1.713-1.243-.644-.328-1.303-.536-2.011-.663-.699-.126-1.412-.167-2.117-.186-.325-.009-.649-.012-.973-.015C103.227 0 102.842 0 102.458 0z"/>
    <path fill="#FFFFFE" d="M102.458 2.4l1.137.002c.308.002.616.005.925.014.538.014 1.169.044 1.756.149.51.092.938.232 1.349.44.406.206.777.477 1.101.8.326.326.597.698.805 1.108.208.407.347.833.439 1.346.105.581.134 1.212.148 1.754.009.305.013.61.014.924.003.379.003.756.003 1.136v51.855c0 .38 0 .757-.003 1.143-.001.306-.005.612-.014.918-.014.54-.043 1.172-.15 1.759-.09.506-.229.932-.438 1.341-.208.41-.478.78-.802 1.105-.327.326-.697.595-1.107.803-.408.208-.835.348-1.34.438-.6.107-1.256.137-1.75.15-.311.007-.62.011-.938.012-.377.003-.757.003-1.135.003H10.064c-.373 0-.748 0-1.128-.003-.31 0-.62-.005-.918-.012-.506-.013-1.163-.043-1.757-.15-.51-.09-.937-.23-1.35-.441-.407-.206-.777-.475-1.103-.802-.324-.322-.593-.693-.801-1.102-.209-.41-.348-.836-.44-1.35-.106-.586-.135-1.213-.15-1.75-.008-.308-.011-.616-.013-.92l-.002-.903V9.835l.002-.9c.002-.308.005-.616.013-.923.015-.538.044-1.166.151-1.757.09-.508.23-.935.44-1.346.206-.407.476-.778.801-1.103.324-.324.696-.593 1.105-.801.408-.209.837-.348 1.347-.44.587-.105 1.217-.135 1.757-.149.308-.009.615-.012.92-.014l1.14-.002h92.38z"/>
    <path fill="#000" d="M40.777 39.635v5.482h2.136c1.638 0 2.777-1.21 2.777-2.777 0-1.495-1.14-2.777-2.777-2.777h-2.136v.072zM38 37h5.127c3.061 0 5.411 2.35 5.411 5.34 0 2.991-2.278 5.34-5.411 5.34h-2.279v4.273H38V37zM58.937 45.972c0-1.994-1.567-3.703-3.56-3.703-2.066 0-3.632 1.638-3.632 3.703s1.566 3.703 3.631 3.703c1.994 0 3.56-1.638 3.56-3.703zm-9.898 0c0-3.988 2.92-6.266 5.91-6.266 1.567 0 2.99.64 3.845 1.709V39.99h2.777v11.962h-2.777v-1.567c-.854 1.14-2.278 1.78-3.916 1.78-2.848.072-5.839-2.278-5.839-6.194zM67.335 51.383l-4.913-11.392h2.99l3.347 8.046 3.133-8.046h2.92L67.62 57.507h-2.777l2.492-6.123zM79.891 19.895l.161 8.263h-.107l-2.414-8.263h-3.863v10.409h2.575l-.16-8.53h.053l2.629 8.53h3.755V19.895h-2.629zM30.322 19.895l-1.931 10.516h2.843l1.449-9.55h.053l1.395 9.55h2.844L34.99 19.895h-4.668zM46.252 19.895l-1.342 8.048h-.053l-1.288-8.048h-4.292l-.215 10.516h2.63l.053-9.443h.054l1.77 9.443h2.683l1.77-9.443h.054l.053 9.443h2.63l-.215-10.516h-4.292zM23.936 27.46c.107.268.053.59 0 .805-.108.375-.322.697-1.02.697-.643 0-1.073-.375-1.073-.965v-1.02H19v.805c0 2.36 1.824 3.058 3.81 3.058 1.93 0 3.487-.644 3.701-2.414.107-.912.054-1.502 0-1.717-.43-2.2-4.453-2.843-4.721-4.077-.054-.215-.054-.43 0-.537.053-.322.322-.697.966-.697.59 0 .965.375.965.965v.644h2.63v-.75c0-2.308-2.04-2.63-3.542-2.63-1.878 0-3.38.644-3.702 2.36-.053.484-.107.913 0 1.396.537 2.092 4.292 2.682 4.829 4.077zM58.163 27.407c.108.268.054.59 0 .75-.107.323-.321.698-1.019.698-.644 0-1.073-.375-1.073-.965v-1.02h-2.79v.805c0 2.307 1.824 3.004 3.81 3.004 1.877 0 3.433-.643 3.701-2.36.108-.912.054-1.502 0-1.717-.429-2.2-4.399-2.844-4.667-4.078-.054-.214-.054-.429 0-.536.053-.322.322-.697.965-.697.59 0 .966.375.966.965v.644h2.575v-.751c0-2.253-2.038-2.629-3.54-2.629-1.878 0-3.38.59-3.649 2.307-.053.483-.107.858 0 1.395.483 2.253 4.185 2.843 4.721 4.185zM67.017 28.855c.751 0 .966-.483 1.02-.751v-8.209h2.682v8.263c-.161 1.985-1.717 2.575-3.648 2.575-1.932 0-3.488-.644-3.649-2.575 0-.108-.053-.483 0-.698v-7.565h2.683V28.05c-.054.269.16.805.912.805zM88.959 28.748c.75 0 1.019-.483 1.073-.751 0-.108.053-.269 0-.376v-1.556h-1.073V24.51h3.755v2.844c0 .214 0 .322-.053.697-.161 1.932-1.825 2.63-3.702 2.63-1.878 0-3.541-.698-3.702-2.63-.054-.375-.054-.483-.054-.697V22.9c0-.161 0-.537.054-.698.214-1.985 1.824-2.575 3.702-2.575 1.877 0 3.487.644 3.701 2.575.054.322 0 .698 0 .698v.375h-2.628v-.59s0-.268-.054-.375c-.054-.215-.268-.751-1.073-.751-.751 0-.966.482-1.073.75-.054.162-.054.323-.054.484V27.997c.161.268.43.75 1.18.75z"/>
</svg>
